<svg width="134" height="12" viewBox="0 0 134 12" fill="none" xmlns="http://www.w3.org/2000/svg">
<path d="M0 11.64C0 11.0267 0 10.432 0 9.856C0 9.28 0 8.63467 0 7.92V4.048C0 3.312 0 2.648 0 2.056C0 1.464 0 0.856 0 0.231999C0.448 0.231999 0.917333 0.231999 1.408 0.231999C1.904 0.231999 2.41333 0.231999 2.936 0.231999C3.464 0.231999 3.99733 0.231999 4.536 0.231999C5.40533 0.231999 6.17867 0.357333 6.856 0.608C7.53333 0.858667 8.104 1.22667 8.568 1.712C9.03733 2.19733 9.39467 2.792 9.64 3.496C9.88533 4.19467 10.008 4.99467 10.008 5.896C10.008 6.70133 9.89867 7.45333 9.68 8.152C9.46667 8.84533 9.12267 9.45333 8.648 9.976C8.17867 10.4987 7.55733 10.9067 6.784 11.2C6.01067 11.4933 5.06667 11.64 3.952 11.64C3.44 11.64 2.96 11.64 2.512 11.64C2.064 11.64 1.63467 11.64 1.224 11.64C0.813333 11.64 0.405333 11.64 0 11.64ZM2.632 9.536H3.944C4.76533 9.536 5.416 9.376 5.896 9.056C6.38133 8.736 6.73067 8.29867 6.944 7.744C7.15733 7.18933 7.264 6.56267 7.264 5.864C7.264 5.336 7.2 4.856 7.072 4.424C6.94933 3.992 6.75733 3.62133 6.496 3.312C6.24 2.99733 5.912 2.75733 5.512 2.592C5.112 2.42133 4.63467 2.336 4.08 2.336H2.632C2.632 2.69333 2.632 3.056 2.632 3.424C2.632 3.78667 2.632 4.2 2.632 4.664V7.288C2.632 7.73067 2.632 8.13067 2.632 8.488C2.632 8.84533 2.632 9.19467 2.632 9.536Z" fill="#1C1C1C"/>
<path d="M11.578 11.64C11.7807 11.0267 11.9913 10.3813 12.21 9.704C12.434 9.02667 12.6447 8.384 12.842 7.776L14.13 3.864C14.3593 3.15467 14.5673 2.51733 14.754 1.952C14.9407 1.38133 15.1273 0.808 15.314 0.231999H18.706C18.898 0.829333 19.0847 1.41067 19.266 1.976C19.4527 2.54133 19.6607 3.17067 19.89 3.864L21.162 7.784C21.37 8.41333 21.5807 9.06133 21.794 9.728C22.0127 10.3947 22.2207 11.032 22.418 11.64H19.698C19.5273 11.032 19.3513 10.4107 19.17 9.776C18.9887 9.136 18.8153 8.53067 18.65 7.96L17.082 2.464H16.89L15.306 7.904C15.1353 8.496 14.954 9.11733 14.762 9.768C14.5753 10.4133 14.394 11.0373 14.218 11.64H11.578ZM14.33 9.256L14.61 7.288H19.706L19.93 9.256H14.33Z" fill="#1C1C1C"/>
<path d="M24.662 11.64C24.742 11.0427 24.8193 10.4453 24.894 9.848C24.9687 9.25067 25.0487 8.60267 25.134 7.904L25.606 4.08C25.6967 3.392 25.7793 2.74133 25.854 2.128C25.9287 1.51467 26.006 0.882667 26.086 0.231999H28.75C29.006 0.882667 29.2487 1.50667 29.478 2.104C29.7127 2.696 29.9447 3.28533 30.174 3.872L31.534 7.36H31.71L33.03 3.88C33.254 3.288 33.4753 2.70133 33.694 2.12C33.918 1.53867 34.1527 0.909333 34.398 0.231999H37.03C37.11 0.871999 37.1873 1.49867 37.262 2.112C37.342 2.72533 37.4273 3.384 37.518 4.088L38.006 7.928C38.0913 8.62133 38.1713 9.26133 38.246 9.848C38.326 10.4347 38.4033 11.032 38.478 11.64H35.974C35.878 10.84 35.7847 10.08 35.694 9.36C35.6033 8.64 35.5207 7.96533 35.446 7.336L35.11 4.632H34.934L33.942 7.536C33.702 8.25067 33.4593 8.96 33.214 9.664C32.974 10.3627 32.75 11.0213 32.542 11.64H30.798C30.6487 11.24 30.486 10.8107 30.31 10.352C30.1393 9.89333 29.9633 9.42667 29.782 8.952C29.6007 8.472 29.422 8.00267 29.246 7.544L28.142 4.632H27.966L27.638 7.32C27.5633 7.95467 27.4807 8.63467 27.39 9.36C27.3047 10.08 27.214 10.84 27.118 11.64H24.662Z" fill="#1C1C1C"/>
<path d="M41.5799 11.64C41.5799 11.0267 41.5799 10.432 41.5799 9.856C41.5799 9.28 41.5799 8.63467 41.5799 7.92V4.048C41.5799 3.312 41.5799 2.648 41.5799 2.056C41.5799 1.464 41.5799 0.856 41.5799 0.231999H44.2679C44.2679 0.856 44.2679 1.464 44.2679 2.056C44.2679 2.648 44.2679 3.312 44.2679 4.048V7.92C44.2679 8.63467 44.2679 9.28 44.2679 9.856C44.2679 10.432 44.2679 11.0267 44.2679 11.64H41.5799Z" fill="#1C1C1C"/>
<path d="M46.8911 11.64C47.0938 11.0267 47.3045 10.3813 47.5231 9.704C47.7471 9.02667 47.9578 8.384 48.1551 7.776L49.4431 3.864C49.6725 3.15467 49.8805 2.51733 50.0671 1.952C50.2538 1.38133 50.4405 0.808 50.6271 0.231999H54.0191C54.2111 0.829333 54.3978 1.41067 54.5791 1.976C54.7658 2.54133 54.9738 3.17067 55.2031 3.864L56.4751 7.784C56.6831 8.41333 56.8938 9.06133 57.1071 9.728C57.3258 10.3947 57.5338 11.032 57.7311 11.64H55.0111C54.8405 11.032 54.6645 10.4107 54.4831 9.776C54.3018 9.136 54.1285 8.53067 53.9631 7.96L52.3951 2.464H52.2031L50.6191 7.904C50.4485 8.496 50.2671 9.11733 50.0751 9.768C49.8885 10.4133 49.7071 11.0373 49.5311 11.64H46.8911ZM49.6431 9.256L49.9231 7.288H55.0191L55.2431 9.256H49.6431Z" fill="#1C1C1C"/>
<path d="M60.3031 11.64C60.3031 11.0267 60.3031 10.432 60.3031 9.856C60.3031 9.28 60.3031 8.63467 60.3031 7.92V4.048C60.3031 3.312 60.3031 2.648 60.3031 2.056C60.3031 1.464 60.3031 0.856 60.3031 0.231999H62.5991C63.1325 1.01067 63.6365 1.74667 64.1111 2.44C64.5858 3.128 65.0605 3.81867 65.5351 4.512L67.3911 7.2H67.5831V4.048C67.5831 3.312 67.5831 2.648 67.5831 2.056C67.5831 1.464 67.5831 0.856 67.5831 0.231999H70.0551C70.0551 0.856 70.0551 1.464 70.0551 2.056C70.0551 2.648 70.0551 3.312 70.0551 4.048V7.92C70.0551 8.63467 70.0551 9.28 70.0551 9.856C70.0551 10.432 70.0551 11.0267 70.0551 11.64H67.7831C67.3458 11 66.8871 10.3333 66.4071 9.64C65.9271 8.94667 65.4018 8.18933 64.8311 7.368L62.9511 4.648H62.7671V7.92C62.7671 8.63467 62.7671 9.28 62.7671 9.856C62.7671 10.432 62.7671 11.0267 62.7671 11.64H60.3031Z" fill="#1C1C1C"/>
<path d="M83.2376 11.84C82.2563 11.84 81.3843 11.696 80.6216 11.408C79.859 11.1147 79.2136 10.704 78.6856 10.176C78.163 9.648 77.763 9.024 77.4856 8.304C77.2136 7.584 77.0776 6.79467 77.0776 5.936C77.0776 4.77333 77.315 3.74667 77.7896 2.856C78.2696 1.96 78.955 1.26133 79.8456 0.76C80.7363 0.253333 81.8056 0 83.0536 0C83.4536 0 83.843 0.0266666 84.2216 0.0799999C84.6056 0.128 84.9683 0.194666 85.3096 0.28C85.651 0.36 85.9683 0.453333 86.2616 0.559999C86.555 0.661333 86.8136 0.768 87.0376 0.88L86.8376 3.32C86.3896 3.064 85.955 2.856 85.5336 2.696C85.1176 2.536 84.7176 2.42133 84.3336 2.352C83.955 2.27733 83.5976 2.24 83.2616 2.24C82.771 2.24 82.315 2.32 81.8936 2.48C81.4776 2.63467 81.1123 2.86933 80.7976 3.184C80.483 3.49867 80.2376 3.888 80.0616 4.352C79.891 4.81067 79.8056 5.34133 79.8056 5.944C79.8056 6.46133 79.8776 6.94933 80.0216 7.408C80.171 7.86667 80.395 8.272 80.6936 8.624C80.9923 8.97067 81.371 9.24267 81.8296 9.44C82.2936 9.63733 82.8376 9.736 83.4616 9.736C83.7923 9.736 84.107 9.72 84.4056 9.688C84.7043 9.656 84.9923 9.60533 85.2696 9.536C85.547 9.46667 85.819 9.38133 86.0856 9.28C86.3576 9.17333 86.6296 9.04533 86.9016 8.896L87.2136 11.24C87.0323 11.3147 86.7976 11.3893 86.5096 11.464C86.227 11.5333 85.907 11.5973 85.5496 11.656C85.1976 11.7147 84.8243 11.76 84.4296 11.792C84.035 11.824 83.6376 11.84 83.2376 11.84ZM84.7416 11.288C84.7416 10.6907 84.7416 10.168 84.7416 9.72C84.7416 9.272 84.7416 8.82133 84.7416 8.368C84.7416 7.84533 84.7416 7.38133 84.7416 6.976C84.7416 6.57067 84.7416 6.15733 84.7416 5.736H87.2136C87.2136 6.15733 87.2136 6.57067 87.2136 6.976C87.2136 7.38133 87.2136 7.84533 87.2136 8.368C87.2136 8.82133 87.2136 9.272 87.2136 9.72C87.2136 10.1627 87.2136 10.6693 87.2136 11.24L84.7416 11.288Z" fill="#1C1C1C"/>
<path d="M90.3739 11.64C90.3739 11.0267 90.3739 10.432 90.3739 9.856C90.3739 9.28 90.3739 8.63467 90.3739 7.92V4.048C90.3739 3.312 90.3739 2.648 90.3739 2.056C90.3739 1.464 90.3739 0.856 90.3739 0.231999C90.7205 0.231999 91.1285 0.231999 91.5979 0.231999C92.0725 0.231999 92.5792 0.231999 93.1179 0.231999C93.6565 0.231999 94.2005 0.231999 94.7499 0.231999C95.6779 0.231999 96.4619 0.335999 97.1019 0.544C97.7472 0.746666 98.2352 1.088 98.5659 1.568C98.9019 2.048 99.0699 2.70133 99.0699 3.528C99.0699 4.184 98.9392 4.77333 98.6779 5.296C98.4219 5.81867 98.0085 6.232 97.4379 6.536C96.8672 6.84 96.1205 6.992 95.1979 6.992L96.2139 6.032L97.7659 8.32C98.0059 8.672 98.2619 9.05067 98.5339 9.456C98.8059 9.856 99.0699 10.248 99.3259 10.632C99.5872 11.0107 99.8165 11.3467 100.014 11.64H97.0299C96.7419 11.192 96.4645 10.7627 96.1979 10.352C95.9312 9.94133 95.6725 9.54133 95.4219 9.152L93.5739 6.24L95.1339 7.432H92.4859V5.552H94.3899C94.8165 5.552 95.1739 5.50133 95.4619 5.4C95.7552 5.29333 95.9765 5.11467 96.1259 4.864C96.2752 4.61333 96.3499 4.26933 96.3499 3.832C96.3499 3.50667 96.3019 3.24533 96.2059 3.048C96.1099 2.84533 95.9792 2.688 95.8139 2.576C95.6539 2.464 95.4725 2.38933 95.2699 2.352C95.0725 2.31467 94.8725 2.296 94.6699 2.296H91.0859L92.9579 0.648C92.9579 1.29333 92.9579 1.912 92.9579 2.504C92.9579 3.09067 92.9579 3.744 92.9579 4.464V7.92C92.9579 8.63467 92.9579 9.28 92.9579 9.856C92.9579 10.432 92.9579 11.0267 92.9579 11.64H90.3739Z" fill="#1C1C1C"/>
<path d="M102.556 11.64C102.556 11.0267 102.556 10.432 102.556 9.856C102.556 9.28 102.556 8.63467 102.556 7.92V4.048C102.556 3.312 102.556 2.648 102.556 2.056C102.556 1.464 102.556 0.856 102.556 0.231999H110.132V2.384C109.642 2.384 109.114 2.384 108.548 2.384C107.988 2.384 107.327 2.384 106.564 2.384H103.876L105.132 0.648C105.132 1.272 105.132 1.88 105.132 2.472C105.132 3.064 105.132 3.728 105.132 4.464V7.504C105.132 8.21333 105.132 8.85867 105.132 9.44C105.132 10.016 105.132 10.6107 105.132 11.224L104.044 9.488H106.756C107.391 9.488 107.991 9.488 108.556 9.488C109.127 9.488 109.676 9.488 110.204 9.488V11.64H102.556ZM104.532 6.888V4.888H106.62C107.324 4.888 107.927 4.888 108.428 4.888C108.93 4.888 109.412 4.888 109.876 4.888V6.888C109.386 6.888 108.89 6.888 108.388 6.888C107.887 6.888 107.298 6.888 106.62 6.888H104.532Z" fill="#1C1C1C"/>
<path d="M113.231 11.64C113.231 11.0267 113.231 10.432 113.231 9.856C113.231 9.28 113.231 8.63467 113.231 7.92V4.048C113.231 3.312 113.231 2.648 113.231 2.056C113.231 1.464 113.231 0.856 113.231 0.231999H115.863C115.863 0.856 115.863 1.464 115.863 2.056C115.863 2.648 115.863 3.312 115.863 4.048V7.496C115.863 8.21067 115.863 8.856 115.863 9.432C115.863 10.008 115.863 10.6027 115.863 11.216L114.951 9.344H117.183C117.738 9.344 118.223 9.344 118.639 9.344C119.061 9.344 119.45 9.344 119.807 9.344C120.17 9.344 120.541 9.344 120.919 9.344V11.64H113.231Z" fill="#1C1C1C"/>
<path d="M122.84 11.64C123.043 11.0267 123.254 10.3813 123.472 9.704C123.696 9.02667 123.907 8.384 124.104 7.776L125.393 3.864C125.622 3.15467 125.83 2.51733 126.017 1.952C126.203 1.38133 126.39 0.808 126.576 0.231999H129.969C130.161 0.829333 130.347 1.41067 130.529 1.976C130.715 2.54133 130.923 3.17067 131.152 3.864L132.424 7.784C132.632 8.41333 132.843 9.06133 133.057 9.728C133.275 10.3947 133.483 11.032 133.68 11.64H130.96C130.79 11.032 130.614 10.4107 130.432 9.776C130.251 9.136 130.078 8.53067 129.913 7.96L128.344 2.464H128.152L126.568 7.904C126.398 8.496 126.216 9.11733 126.024 9.768C125.838 10.4133 125.656 11.0373 125.48 11.64H122.84ZM125.592 9.256L125.872 7.288H130.969L131.193 9.256H125.592Z" fill="#1C1C1C"/>
</svg>
