<svg width="350" height="280" viewBox="0 0 350 280" fill="none" xmlns="http://www.w3.org/2000/svg">
<path fill-rule="evenodd" clip-rule="evenodd" d="M0 138.297V276.594L77.5673 276.357C155.122 276.121 155.136 276.12 161.865 274.59C170.077 272.722 176.03 270.966 181.44 268.817L185.534 267.19L189.853 269.181C196.925 272.442 207.014 275.777 215.661 277.713L223.784 279.531L286.881 279.766L349.978 280V227.524V175.049H323.057H312.288V191.525V204.337V223.449V242.562L269.382 242.286C232.001 242.046 225.87 241.863 221.766 240.858C199.393 235.382 184.611 224.004 176.087 205.699C171.868 196.638 170.923 192.56 170.483 181.499C170.182 173.937 170.338 170.896 171.232 166.921C174.069 154.296 179.556 144.503 188.702 135.742C195.224 129.493 202.706 125.192 212.384 122.128L218.4 120.223L284.021 119.88L349.642 119.537L349.821 100.976L350 82.4158H302.605H255.212L253.734 77.4777C249.861 64.5384 241.747 50.006 232.223 38.9548C214.297 18.1505 186.491 3.95391 157.348 0.724025C153.126 0.256094 124.123 0 75.4062 0H0V138.297ZM158.911 39.4091C170.069 41.6738 181.78 46.2959 189.502 51.4833C194.778 55.0272 203.874 63.8805 207.857 69.3485C210.682 73.2275 215.371 81.5815 215.371 82.7367C215.371 82.9349 214.653 83.097 213.775 83.097C211.067 83.097 199.205 86.3759 192.697 88.9233C181.004 93.5004 166.649 103.52 157.775 113.297C139.636 133.283 130.458 159.941 132.577 186.485C133.934 203.49 139.085 218.962 148.079 233.045C150.535 236.89 150.693 237.383 149.611 237.815C148.947 238.08 123.797 238.319 93.7202 238.345L39.0361 238.393V138.227V38.0611L97.0854 38.352C136.292 38.5481 156.36 38.8914 158.911 39.4091Z" fill="#1C1C1C"/>
</svg>
